# xmcd
#
# Track frame offsets:
#	150
#	29316
#	55296
#	70342
#	101955
#	125943
#	149035
#	166109
#	200028
#	216880
#	248413
#	278235
#
# Disc length: 4020 seconds
#
# Revision: 1
# Processed by: cddbd v1.5.2PL0 Copyright (c) Steve Scherf et al.
# Submitted via: audiograbber 1.83.01
#
DISCID=c20fb20c
DTITLE=Grateful Dead - 71-08-26 Gaelic Park, Bronx NY
DYEAR=1900
DGENRE=
TTITLE0=Bertha
TTITLE1=Playing In The Band
TTITLE2=Mr Charlie
TTITLE3=Sugaree
TTITLE4=El Paso
TTITLE5=Big Boss Man
TTITLE6=Big Railroad Blues
TTITLE7=Hard To Handle
TTITLE8=Beat It On Down The Line
TTITLE9=Loser
TTITLE10=Sugar Magnolia
TTITLE11=Empty Pages
EXTD=
EXTT0=
EXTT1=
EXTT2=
EXTT3=
EXTT4=
EXTT5=
EXTT6=
EXTT7=
EXTT8=
EXTT9=
EXTT10=
EXTT11=
PLAYORDER=
